M48
; DRILL file {KiCad 8.0.3} date 2024-07-11T10:58:12+0200
; FORMAT={-:-/ absolute / metric / decimal}
; #@! TF.CreationDate,2024-07-11T10:58:12+02:00
; #@! TF.GenerationSoftware,Kicad,Pcbnew,8.0.3
; #@! TF.FileFunction,Plated,1,2,PTH
FMAT,2
METRIC
; #@! TA.AperFunction,Plated,PTH,ViaDrill
T1C0.300
; #@! TA.AperFunction,Plated,PTH,ComponentDrill
T2C0.508
; #@! TA.AperFunction,Plated,PTH,ComponentDrill
T3C0.800
; #@! TA.AperFunction,Plated,PTH,ComponentDrill
T4C0.840
%
G90
G05
T1
X86.0Y-46.0
X86.0Y-48.0
X86.0Y-50.0
X86.0Y-52.0
X86.0Y-54.0
X86.0Y-56.0
X86.0Y-58.0
X86.0Y-60.0
X86.0Y-62.0
X86.0Y-64.0
X88.0Y-46.0
X88.0Y-69.0
X90.0Y-46.0
X92.0Y-46.0
X92.0Y-69.0
X94.0Y-46.0
X94.0Y-69.0
X96.0Y-46.0
X96.0Y-69.0
X98.0Y-46.0
X98.0Y-69.0
X100.0Y-46.0
X100.0Y-69.0
X102.0Y-46.0
X102.0Y-69.0
X104.0Y-46.0
X104.0Y-69.0
X106.0Y-46.0
X106.0Y-69.0
X108.0Y-46.0
X108.0Y-69.0
X110.0Y-46.0
X110.0Y-69.0
X112.0Y-46.0
X112.0Y-69.0
X114.0Y-46.0
X114.0Y-69.0
X116.0Y-46.0
X116.0Y-69.0
X118.0Y-46.0
X118.0Y-69.0
X120.0Y-46.0
X122.0Y-46.0
X122.0Y-69.0
X124.0Y-46.0
X124.0Y-48.0
X124.0Y-50.0
X124.0Y-52.0
X124.0Y-54.0
X124.0Y-56.0
X124.0Y-58.0
X124.0Y-60.0
X124.0Y-62.0
X124.0Y-64.0
T2
X97.078Y-51.015
X97.84Y-56.73
X97.84Y-58.0
X98.602Y-51.015
X100.38Y-56.73
X100.38Y-58.0
X102.158Y-51.015
X102.158Y-63.715
X102.92Y-56.73
X102.92Y-58.0
X103.682Y-51.015
X103.682Y-63.715
X105.46Y-56.73
X105.46Y-58.0
X107.238Y-51.015
X107.238Y-63.715
X108.0Y-56.73
X108.0Y-58.0
X108.762Y-51.015
X108.762Y-63.715
X110.54Y-56.73
X110.54Y-58.0
X112.318Y-63.715
X113.08Y-56.73
X113.08Y-58.0
X113.842Y-63.715
T3
X88.0Y-59.8
X104.7Y-67.0
X122.0Y-59.8
T4
X86.73Y-65.53
X86.73Y-68.07
X88.0Y-66.8
X89.27Y-65.53
X89.27Y-68.07
X120.73Y-65.53
X120.73Y-68.07
X122.0Y-66.8
X123.27Y-65.53
X123.27Y-68.07
M30
