G04 #@! TF.GenerationSoftware,KiCad,Pcbnew,8.0.3*
G04 #@! TF.CreationDate,2024-07-11T10:58:03+02:00*
G04 #@! TF.ProjectId,145MHz_BPF,3134354d-487a-45f4-9250-462e6b696361,rev?*
G04 #@! TF.SameCoordinates,Original*
G04 #@! TF.FileFunction,Copper,L2,Bot*
G04 #@! TF.FilePolarity,Positive*
%FSLAX46Y46*%
G04 Gerber Fmt 4.6, Leading zero omitted, Abs format (unit mm)*
G04 Created by KiCad (PCBNEW 8.0.3) date 2024-07-11 10:58:03*
%MOMM*%
%LPD*%
G01*
G04 APERTURE LIST*
G04 Aperture macros list*
%AMRoundRect*
0 Rectangle with rounded corners*
0 $1 Rounding radius*
0 $2 $3 $4 $5 $6 $7 $8 $9 X,Y pos of 4 corners*
0 Add a 4 corners polygon primitive as box body*
4,1,4,$2,$3,$4,$5,$6,$7,$8,$9,$2,$3,0*
0 Add four circle primitives for the rounded corners*
1,1,$1+$1,$2,$3*
1,1,$1+$1,$4,$5*
1,1,$1+$1,$6,$7*
1,1,$1+$1,$8,$9*
0 Add four rect primitives between the rounded corners*
20,1,$1+$1,$2,$3,$4,$5,0*
20,1,$1+$1,$4,$5,$6,$7,0*
20,1,$1+$1,$6,$7,$8,$9,0*
20,1,$1+$1,$8,$9,$2,$3,0*%
G04 Aperture macros list end*
G04 #@! TA.AperFunction,ComponentPad*
%ADD10C,1.016000*%
G04 #@! TD*
G04 #@! TA.AperFunction,ComponentPad*
%ADD11C,1.240000*%
G04 #@! TD*
G04 #@! TA.AperFunction,ComponentPad*
%ADD12RoundRect,0.250000X-0.550000X-0.550000X0.550000X-0.550000X0.550000X0.550000X-0.550000X0.550000X0*%
G04 #@! TD*
G04 #@! TA.AperFunction,ViaPad*
%ADD13C,0.600000*%
G04 #@! TD*
G04 APERTURE END LIST*
D10*
X113842000Y-63715000D03*
X112318000Y-63715000D03*
X108762000Y-51015000D03*
X107238000Y-51015000D03*
X108762000Y-63715000D03*
X107238000Y-63715000D03*
X103682000Y-51015000D03*
X102158000Y-51015000D03*
X103682000Y-63715000D03*
X102158000Y-63715000D03*
X98602000Y-51015000D03*
X97078000Y-51015000D03*
X113080000Y-56730000D03*
X110540000Y-56730000D03*
X108000000Y-56730000D03*
X105460000Y-56730000D03*
X102920000Y-56730000D03*
X100380000Y-56730000D03*
X97840000Y-56730000D03*
X113080000Y-58000000D03*
X110540000Y-58000000D03*
X108000000Y-58000000D03*
X105460000Y-58000000D03*
X102920000Y-58000000D03*
X100380000Y-58000000D03*
X97840000Y-58000000D03*
D11*
X122000000Y-66800000D03*
X120730000Y-68070000D03*
X123270000Y-68070000D03*
X120730000Y-65530000D03*
X123270000Y-65530000D03*
D12*
X104700000Y-67000000D03*
X122000000Y-59800000D03*
X88000000Y-59800000D03*
D11*
X88000000Y-66800000D03*
X86730000Y-68070000D03*
X89270000Y-68070000D03*
X86730000Y-65530000D03*
X89270000Y-65530000D03*
D13*
X86000000Y-58000000D03*
X96000000Y-46000000D03*
X86000000Y-64000000D03*
X124000000Y-50000000D03*
X110000000Y-69000000D03*
X124000000Y-52000000D03*
X114000000Y-69000000D03*
X118000000Y-69000000D03*
X122000000Y-69000000D03*
X86000000Y-46000000D03*
X124000000Y-56000000D03*
X104000000Y-46000000D03*
X92000000Y-69000000D03*
X96000000Y-69000000D03*
X102000000Y-46000000D03*
X124000000Y-62000000D03*
X92000000Y-46000000D03*
X124000000Y-46000000D03*
X86000000Y-60000000D03*
X110000000Y-46000000D03*
X88000000Y-69000000D03*
X102000000Y-69000000D03*
X124000000Y-64000000D03*
X86000000Y-52000000D03*
X98000000Y-46000000D03*
X124000000Y-48000000D03*
X86000000Y-48000000D03*
X94000000Y-69000000D03*
X116000000Y-46000000D03*
X88000000Y-46000000D03*
X112000000Y-69000000D03*
X118000000Y-46000000D03*
X86000000Y-56000000D03*
X112000000Y-46000000D03*
X104000000Y-69000000D03*
X86000000Y-62000000D03*
X94000000Y-46000000D03*
X106000000Y-46000000D03*
X124000000Y-58000000D03*
X116000000Y-69000000D03*
X98000000Y-69000000D03*
X108000000Y-46000000D03*
X86000000Y-54000000D03*
X114000000Y-46000000D03*
X124000000Y-54000000D03*
X122000000Y-46000000D03*
X90000000Y-46000000D03*
X100000000Y-69000000D03*
X100000000Y-46000000D03*
X108000000Y-69000000D03*
X120000000Y-46000000D03*
X124000000Y-60000000D03*
X106000000Y-69000000D03*
X86000000Y-50000000D03*
G04 #@! TA.AperFunction,Conductor*
G36*
X124442539Y-45520185D02*
G01*
X124488294Y-45572989D01*
X124499500Y-45624500D01*
X124499500Y-69375500D01*
X124479815Y-69442539D01*
X124427011Y-69488294D01*
X124375500Y-69499500D01*
X85624500Y-69499500D01*
X85557461Y-69479815D01*
X85511706Y-69427011D01*
X85500500Y-69375500D01*
X85500500Y-66799999D01*
X86874700Y-66799999D01*
X86874700Y-66800000D01*
X86893859Y-67006772D01*
X86950688Y-67206502D01*
X86950693Y-67206515D01*
X87043252Y-67392397D01*
X87168390Y-67558107D01*
X87168392Y-67558110D01*
X87321850Y-67698005D01*
X87321852Y-67698006D01*
X87321855Y-67698009D01*
X87421609Y-67759774D01*
X87498407Y-67807325D01*
X87498409Y-67807326D01*
X87498411Y-67807327D01*
X87692047Y-67882342D01*
X87896170Y-67920500D01*
X87896172Y-67920500D01*
X88103828Y-67920500D01*
X88103830Y-67920500D01*
X88307953Y-67882342D01*
X88501589Y-67807327D01*
X88678145Y-67698009D01*
X88831607Y-67558110D01*
X88956749Y-67392394D01*
X89049311Y-67206505D01*
X89106140Y-67006773D01*
X89125300Y-66800000D01*
X89125300Y-66799999D01*
X120874700Y-66799999D01*
X120874700Y-66800000D01*
X120893859Y-67006772D01*
X120950688Y-67206502D01*
X120950693Y-67206515D01*
X121043252Y-67392397D01*
X121168390Y-67558107D01*
X121168392Y-67558110D01*
X121321850Y-67698005D01*
X121321852Y-67698006D01*
X121321855Y-67698009D01*
X121421609Y-67759774D01*
X121498407Y-67807325D01*
X121498409Y-67807326D01*
X121498411Y-67807327D01*
X121692047Y-67882342D01*
X121896170Y-67920500D01*
X121896172Y-67920500D01*
X122103828Y-67920500D01*
X122103830Y-67920500D01*
X122307953Y-67882342D01*
X122501589Y-67807327D01*
X122678145Y-67698009D01*
X122831607Y-67558110D01*
X122956749Y-67392394D01*
X123049311Y-67206505D01*
X123106140Y-67006773D01*
X123125300Y-66800000D01*
X123106140Y-66593227D01*
X123049311Y-66393495D01*
X122956749Y-66207606D01*
X122956748Y-66207605D01*
X122956747Y-66207602D01*
X122831609Y-66041892D01*
X122831607Y-66041889D01*
X122678149Y-65901994D01*
X122678143Y-65901990D01*
X122501592Y-65792674D01*
X122501583Y-65792670D01*
X122411389Y-65757729D01*
X122307953Y-65717658D01*
X122103830Y-65679500D01*
X121896170Y-65679500D01*
X121692047Y-65717658D01*
X121498416Y-65792670D01*
X121498407Y-65792674D01*
X121321856Y-65901990D01*
X121321850Y-65901994D01*
X121168392Y-66041889D01*
X121168390Y-66041892D01*
X121043252Y-66207602D01*
X120950693Y-66393484D01*
X120950688Y-66393497D01*
X120893859Y-66593227D01*
X120874700Y-66799999D01*
X89125300Y-66799999D01*
X89106140Y-66593227D01*
X89049311Y-66393495D01*
X88956749Y-66207606D01*
X88956748Y-66207605D01*
X88956747Y-66207602D01*
X88831609Y-66041892D01*
X88831607Y-66041889D01*
X88678149Y-65901994D01*
X88678143Y-65901990D01*
X88501592Y-65792674D01*
X88501583Y-65792670D01*
X88411389Y-65757729D01*
X88307953Y-65717658D01*
X88103830Y-65679500D01*
X87896170Y-65679500D01*
X87692047Y-65717658D01*
X87498416Y-65792670D01*
X87498407Y-65792674D01*
X87321856Y-65901990D01*
X87321850Y-65901994D01*
X87168392Y-66041889D01*
X87168390Y-66041892D01*
X87043252Y-66207602D01*
X86950693Y-66393484D01*
X86950688Y-66393497D01*
X86893859Y-66593227D01*
X86874700Y-66799999D01*
X85500500Y-66799999D01*
X85500500Y-45624500D01*
X85520185Y-45557461D01*
X85572989Y-45511706D01*
X85624500Y-45500500D01*
X124375500Y-45500500D01*
X124442539Y-45520185D01*
G37*
G04 #@! TD.AperFunction*
M02*
